<svg id="图层_1" width="12" height="12" data-name="图层 1" xmlns="http://www.w3.org/2000/svg" viewBox="0 0 123.81 91.23"><defs><style>.cls-1,.cls-2,.cls-3,.cls-4{fill:#1890ff;}.cls-2{opacity:0.25;}.cls-3{opacity:0.5;}.cls-4{opacity:0.7;}</style></defs><title>未标题-2</title><polygon class="cls-1" points="121.32 27.27 84.19 27.27 98.31 0 121.32 27.27"/><polygon class="cls-2" points="6.07 27.3 0 27.3 14.31 0 20.38 0 6.07 27.3"/><polygon class="cls-3" points="16.88 27.3 9.57 27.3 23.88 0 31.19 0 16.88 27.3"/><polygon class="cls-4" points="30.75 27.3 20.95 27.3 35.26 0 45.06 0 30.75 27.3"/><polygon class="cls-1" points="47.63 27.3 34.72 27.3 49.03 0 61.94 0 47.63 27.3"/><polygon class="cls-1" points="51.13 91.23 18.93 91.23 66.4 0 98.31 0 51.13 91.23"/><path class="cls-1" d="M404.91,299a22.86,22.86,0,0,1,6,.7,9,9,0,0,1,3.95,2A9.22,9.22,0,0,1,417,305a12.63,12.63,0,0,1,.77,4.71v4.68H404.61a14,14,0,0,0-.17-2.34,3.38,3.38,0,0,0-1-1.81,4.28,4.28,0,0,0-3.05-.83h-9.66a16.54,16.54,0,0,0-3.83.33,7.32,7.32,0,0,0-2.09.84,5.78,5.78,0,0,0-1.7,2.19,8.19,8.19,0,0,0-.91,3.92v10.8c0,2.27.24,3.8.72,4.58a5.82,5.82,0,0,0,2.13,2,10.53,10.53,0,0,0,4.84.8h10.5a6.15,6.15,0,0,0,3.52-.78,3.12,3.12,0,0,0,1.05-2.76l.14-4h-2.69l4.24-8.05h11.25v8.22q0,3.74-.14,7a17.33,17.33,0,0,1-1.07,5.66,6.58,6.58,0,0,1-3.54,3.61,11.61,11.61,0,0,1-4.88,1.22H383.92a28.67,28.67,0,0,1-5.37-.58,8.83,8.83,0,0,1-4.92-2.63,11.19,11.19,0,0,1-2.59-4.14,23.38,23.38,0,0,1-1-4.66,49.82,49.82,0,0,1-.29-5.5V315.65c0-1.5,0-2.75,0-3.76a14.24,14.24,0,0,1,.68-3.76,16.6,16.6,0,0,1,1.66-3.86,10.92,10.92,0,0,1,3.06-3.11,7,7,0,0,1,3.24-1.55l4.94-.64Z" transform="translate(-294.09 -255.38)"/><polygon class="cls-1" points="106.44 71.93 99.63 71.93 103.99 64.01 110.8 64.01 106.44 71.93"/></svg>