<?xml version="1.0" encoding="utf-8"?>
<svg xmlns="http://www.w3.org/2000/svg" style="margin: auto; background: none; display: block; shape-rendering: auto;" width="280" height="250" preserveAspectRatio="xMidYMid">
<style type="text/css">
  text {
    text-anchor: middle; font-size: 70px; opacity: 0;
  }
</style>
<g style="transform-origin: 140px 125px; transform: scale(0.875);">
<g transform="translate(140,125)">
  <g transform="translate(0,0)"><g class="path" style="transform: matrix(1, 0, 0, 1, 0, 0); transform-origin: -126.4px -2.5266px; animation: 1s linear -0.5775s infinite normal forwards running bounce-ea6dda22-e5d7-46e8-ad1a-9f1493b65ce0;"><path d="M5.60-30.40L9.68-30.40L11.84-42.24L11.84-42.24Q17.76-42.24 20.64-42.72L20.64-42.72L21.68-42.96L21.68-42.96Q20.56-37.36 19.20-30.40L19.20-30.40L29.12-30.40L28.96-28.96L18.96-28.96L18.96-28.96Q14.96-8.32 14.96-4.08L14.96-4.08L14.96-4.08Q14.96-1.52 17.68-1.52L17.68-1.52L17.68-1.52Q20.40-1.52 22.64-4.96L22.64-4.96L22.64-4.96Q24.88-8.40 25.84-12.40L25.84-12.40L27.28-11.92L27.28-11.92Q24.32 0.72 15.04 0.72L15.04 0.72L15.04 0.72Q11.20 0.72 8.64-1.40L8.64-1.40L8.64-1.40Q6.08-3.52 6.08-7.32L6.08-7.32L6.08-7.32Q6.08-11.12 9.36-28.96L9.36-28.96L5.44-28.96L5.60-30.40" fill="#1890ff" stroke="none" stroke-width="none" transform="translate(-143.68002319335938,18.593397216796877)" style="fill: rgb(24, 144, 255);"></path></g><g class="path" style="transform: matrix(1, 0, 0, 1, 0, 0); transform-origin: -97.52px 3.3934px; animation: 1s linear -0.495s infinite normal forwards running bounce-ea6dda22-e5d7-46e8-ad1a-9f1493b65ce0;"><path d="M43.04 0.72L43.04 0.72Q36.88 0.72 33.68-2.36L33.68-2.36L33.68-2.36Q30.48-5.44 30.48-10.12L30.48-10.12L30.48-10.12Q30.48-14.80 31.32-18.12L31.32-18.12L31.32-18.12Q32.16-21.44 34.08-24.52L34.08-24.52L34.08-24.52Q36-27.60 39.88-29.36L39.88-29.36L39.88-29.36Q43.76-31.12 49.56-31.12L49.56-31.12L49.56-31.12Q55.36-31.12 58.60-28.04L58.60-28.04L58.60-28.04Q61.84-24.96 61.84-19.60L61.84-19.60L61.84-19.60Q61.84-10.48 57-4.88L57-4.88L57-4.88Q52.16 0.72 43.04 0.72L43.04 0.72zM39.52-7.52L39.52-7.52L39.52-7.52Q39.52-1.12 43.24-1.12L43.24-1.12L43.24-1.12Q46.96-1.12 49.88-7.56L49.88-7.56L49.88-7.56Q52.80-14 52.80-22.88L52.80-22.88L52.80-22.88Q52.80-29.60 49.16-29.60L49.16-29.60L49.16-29.60Q45.52-29.60 42.52-23.48L42.52-23.48L42.52-23.48Q39.52-17.36 39.52-7.52" fill="#1890ff" stroke="none" stroke-width="none" transform="translate(-143.68002319335938,18.593397216796877)" style="fill: rgb(24, 144, 255);"></path></g><g class="path" style="transform: matrix(1, 0, 0, 1, 0, 0); transform-origin: -59.72px 3.3934px; animation: 1s linear -0.4125s infinite normal forwards running bounce-ea6dda22-e5d7-46e8-ad1a-9f1493b65ce0;"><path d="M96.72-0.88L96.72-0.88L96.72-0.88Q98.64-0.88 100.72-3.12L100.72-3.12L101.92-2.16L101.92-2.16Q101.36-1.04 99.44-0.16L99.44-0.16L99.44-0.16Q97.52 0.72 95.20 0.72L95.20 0.72L95.20 0.72Q87.92 0.72 87.92-5.84L87.92-5.84L87.92-5.84Q87.92-8.64 89.36-15.84L89.36-15.84L89.36-15.84Q90.80-23.04 90.80-25.28L90.80-25.28L90.80-25.28Q90.80-28.72 87.52-28.72L87.52-28.72L87.52-28.72Q84.88-28.72 82.44-25.28L82.44-25.28L82.44-25.28Q80-21.84 78.40-15.84L78.40-15.84L75.68-0.88L75.68-0.88Q78.16-1.12 79.76-3.12L79.76-3.12L80.96-2.16L80.96-2.16Q78.56 0.72 74.96 0.72L74.96 0.72L74.96 0.72Q71.36 0.72 69.32-1.12L69.32-1.12L69.32-1.12Q67.28-2.96 67.28-5.92L67.28-5.92L67.28-5.92Q67.28-7.04 68.56-14.72L68.56-14.72L71.20-29.52L71.20-29.52Q68.80-29.28 67.20-27.28L67.20-27.28L66-28.24L66-28.24Q68.40-31.12 72.04-31.12L72.04-31.12L72.04-31.12Q75.68-31.12 77.68-29.28L77.68-29.28L77.68-29.28Q79.68-27.44 79.68-24.08L79.68-24.08L79.68-23.60L79.68-23.60Q82.96-31.12 89.92-31.12L89.92-31.12L89.92-31.12Q94.64-31.12 97.28-28.44L97.28-28.44L97.28-28.44Q99.92-25.76 99.92-21.04L99.92-21.04L99.92-21.04Q99.92-18.56 98.40-11.48L98.40-11.48L98.40-11.48Q96.88-4.40 96.72-0.88" fill="#1890ff" stroke="none" stroke-width="none" transform="translate(-143.68002319335938,18.593397216796877)" style="fill: rgb(24, 144, 255);"></path></g><g class="path" style="transform: matrix(1, 0, 0, 1, 0, 0); transform-origin: -21.84px 10.3934px; animation: 1s linear -0.33s infinite normal forwards running bounce-ea6dda22-e5d7-46e8-ad1a-9f1493b65ce0;"><path d="M132 8.72L132 8.72L132 8.72Q134.88 8.72 136.96 6.48L136.96 6.48L138.08 7.44L138.08 7.44Q136.16 10.16 132 10.16L132 10.16L132 10.16Q130.24 10.16 128.40 9.76L128.40 9.76L128.40 9.76Q122.96 14.72 114.48 14.72L114.48 14.72L114.48 14.72Q109.44 14.72 106.68 13L106.68 13L106.68 13Q103.92 11.28 103.92 8.52L103.92 8.52L103.92 8.52Q103.92 5.76 105.64 4.12L105.64 4.12L105.64 4.12Q107.36 2.48 111.76 2.48L111.76 2.48L111.76 2.48Q116.16 2.48 123.36 6.08L123.36 6.08L125.84-7.20L125.84-7.20Q122.24-0.56 116.56-0.56L116.56-0.56L116.56-0.56Q105.68-0.56 105.68-11.28L105.68-11.28L105.68-11.28Q105.68-20.24 110.20-25.68L110.20-25.68L110.20-25.68Q114.72-31.12 121.76-31.12L121.76-31.12L121.76-31.12Q125.84-31.12 128.08-28.64L128.08-28.64L128.08-28.64Q128.72-27.92 129.36-26.48L129.36-26.48L130.08-30.40L130.08-30.40Q136-30.40 138.72-30.88L138.72-30.88L139.76-31.12L134.48-1.60L134.48-1.60Q133.28 4.64 129.68 8.48L129.68 8.48L129.68 8.48Q130.72 8.72 132 8.72zM114.72-8.80L114.72-8.80Q114.72-5.12 115.44-3.88L115.44-3.88L115.44-3.88Q116.16-2.64 118.16-2.64L118.16-2.64L118.16-2.64Q120.16-2.64 122.24-4.80L122.24-4.80L122.24-4.80Q124.32-6.96 125.24-8.84L125.24-8.84L125.24-8.84Q126.16-10.72 126.80-12.48L126.80-12.48L128.48-21.68L128.48-22.24L128.48-22.24Q128.48-29.60 121.76-29.60L121.76-29.60L121.76-29.60Q119.20-29.60 116.96-22.64L116.96-22.64L116.96-22.64Q114.72-15.68 114.72-8.80L114.72-8.80zM114.16 13.12L114.16 13.12L114.16 13.12Q120.56 13.12 122.80 7.60L122.80 7.60L121.68 7.04L121.68 7.04Q120.72 6.56 120.52 6.44L120.52 6.44L120.52 6.44Q120.32 6.32 119.44 5.92L119.44 5.92L119.44 5.92Q118.56 5.52 118.16 5.40L118.16 5.40L118.16 5.40Q117.76 5.28 116.92 4.96L116.92 4.96L116.92 4.96Q116.08 4.64 115.52 4.52L115.52 4.52L115.52 4.52Q114.96 4.40 114.24 4.24L114.24 4.24L114.24 4.24Q113.04 4 110.72 4L110.72 4L110.72 4Q108.40 4 107.00 5.12L107.00 5.12L107.00 5.12Q105.60 6.24 105.60 8.40L105.60 8.40L105.60 8.40Q105.60 10.56 107.92 11.84L107.92 11.84L107.92 11.84Q110.24 13.12 114.16 13.12" fill="#1890ff" stroke="none" stroke-width="none" transform="translate(-143.68002319335938,18.593397216796877)" style="fill: rgb(24, 144, 255);"></path></g><g class="path" style="transform: matrix(1, 0, 0, 1, 0, 0); transform-origin: 15.36px 10.3934px; animation: 1s linear -0.2475s infinite normal forwards running bounce-ea6dda22-e5d7-46e8-ad1a-9f1493b65ce0;"><path d="M169.20 8.72L169.20 8.72L169.20 8.72Q172.08 8.72 174.16 6.48L174.16 6.48L175.28 7.44L175.28 7.44Q173.36 10.16 169.20 10.16L169.20 10.16L169.20 10.16Q167.44 10.16 165.60 9.76L165.60 9.76L165.60 9.76Q160.16 14.72 151.68 14.72L151.68 14.72L151.68 14.72Q146.64 14.72 143.88 13L143.88 13L143.88 13Q141.12 11.28 141.12 8.52L141.12 8.52L141.12 8.52Q141.12 5.76 142.84 4.12L142.84 4.12L142.84 4.12Q144.56 2.48 148.96 2.48L148.96 2.48L148.96 2.48Q153.36 2.48 160.56 6.08L160.56 6.08L163.04-7.20L163.04-7.20Q159.44-0.56 153.76-0.56L153.76-0.56L153.76-0.56Q142.88-0.56 142.88-11.28L142.88-11.28L142.88-11.28Q142.88-20.24 147.40-25.68L147.40-25.68L147.40-25.68Q151.92-31.12 158.96-31.12L158.96-31.12L158.96-31.12Q163.04-31.12 165.28-28.64L165.28-28.64L165.28-28.64Q165.92-27.92 166.56-26.48L166.56-26.48L167.28-30.40L167.28-30.40Q173.20-30.40 175.92-30.88L175.92-30.88L176.96-31.12L171.68-1.60L171.68-1.60Q170.48 4.64 166.88 8.48L166.88 8.48L166.88 8.48Q167.92 8.72 169.20 8.72zM151.92-8.80L151.92-8.80Q151.92-5.12 152.64-3.88L152.64-3.88L152.64-3.88Q153.36-2.64 155.36-2.64L155.36-2.64L155.36-2.64Q157.36-2.64 159.44-4.80L159.44-4.80L159.44-4.80Q161.52-6.96 162.44-8.84L162.44-8.84L162.44-8.84Q163.36-10.72 164.00-12.48L164.00-12.48L165.68-21.68L165.68-22.24L165.68-22.24Q165.68-29.60 158.96-29.60L158.96-29.60L158.96-29.60Q156.40-29.60 154.16-22.64L154.16-22.64L154.16-22.64Q151.92-15.68 151.92-8.80L151.92-8.80zM151.36 13.12L151.36 13.12L151.36 13.12Q157.76 13.12 160.00 7.60L160.00 7.60L158.88 7.04L158.88 7.04Q157.92 6.56 157.72 6.44L157.72 6.44L157.72 6.44Q157.52 6.32 156.64 5.92L156.64 5.92L156.64 5.92Q155.76 5.52 155.36 5.40L155.36 5.40L155.36 5.40Q154.96 5.28 154.12 4.96L154.12 4.96L154.12 4.96Q153.28 4.64 152.72 4.52L152.72 4.52L152.72 4.52Q152.16 4.40 151.44 4.24L151.44 4.24L151.44 4.24Q150.24 4 147.92 4L147.92 4L147.92 4Q145.60 4 144.20 5.12L144.20 5.12L144.20 5.12Q142.80 6.24 142.80 8.40L142.80 8.40L142.80 8.40Q142.80 10.56 145.12 11.84L145.12 11.84L145.12 11.84Q147.44 13.12 151.36 13.12" fill="#1890ff" stroke="none" stroke-width="none" transform="translate(-143.68002319335938,18.593397216796877)" style="fill: rgb(24, 144, 255);"></path></g><g class="path" style="transform: matrix(1, 0, 0, 1, 0, 0); transform-origin: 53.68px 3.3934px; animation: 1s linear -0.165s infinite normal forwards running bounce-ea6dda22-e5d7-46e8-ad1a-9f1493b65ce0;"><path d="M208.32 0.72L208.32 0.72L208.32 0.72Q201.28 0.72 200.64-5.44L200.64-5.44L200.64-5.44Q197.12 0.72 191.76 0.72L191.76 0.72L191.76 0.72Q186.40 0.72 183.24-2.52L183.24-2.52L183.24-2.52Q180.08-5.76 180.08-11.60L180.08-11.60L180.08-11.60Q180.08-20.72 184.56-25.92L184.56-25.92L184.56-25.92Q189.04-31.12 196.16-31.12L196.16-31.12L196.16-31.12Q202-31.12 203.92-25.60L203.92-25.60L203.92-25.60Q204.32-28 204.80-30.40L204.80-30.40L204.80-30.40Q210.72-30.40 213.60-30.88L213.60-30.88L214.64-31.12L209.12-0.88L209.12-0.88Q211.52-1.12 213.12-3.12L213.12-3.12L214.32-2.16L214.32-2.16Q211.92 0.72 208.32 0.72zM189.12-7.52L189.12-7.52Q189.12-3.92 190.04-2.52L190.04-2.52L190.04-2.52Q190.96-1.12 192.88-1.12L192.88-1.12L192.88-1.12Q194.80-1.12 196.80-3.20L196.80-3.20L196.80-3.20Q199.44-5.92 201.04-10.08L201.04-10.08L201.04-10.08Q201.28-11.12 201.96-15.08L201.96-15.08L201.96-15.08Q202.64-19.04 203.12-21.60L203.12-21.60L203.12-21.60Q202.88-24.64 201.44-26.88L201.44-26.88L201.44-26.88Q200-29.12 197.84-29.12L197.84-29.12L197.84-29.12Q193.92-29.12 191.52-22.12L191.52-22.12L191.52-22.12Q189.12-15.12 189.12-7.52L189.12-7.52" fill="#1890ff" stroke="none" stroke-width="none" transform="translate(-143.68002319335938,18.593397216796877)" style="fill: rgb(24, 144, 255);"></path></g><g class="path" style="transform: matrix(1, 0, 0, 1, 0, 0); transform-origin: 93.32px 3.3934px; animation: 1s linear -0.0825s infinite normal forwards running bounce-ea6dda22-e5d7-46e8-ad1a-9f1493b65ce0;"><path d="M249.76-0.88L249.76-0.88L249.76-0.88Q251.68-0.88 253.76-3.12L253.76-3.12L254.96-2.16L254.96-2.16Q254.40-1.04 252.48-0.16L252.48-0.16L252.48-0.16Q250.56 0.72 248.24 0.72L248.24 0.72L248.24 0.72Q240.96 0.72 240.96-5.84L240.96-5.84L240.96-5.84Q240.96-8.64 242.40-15.84L242.40-15.84L242.40-15.84Q243.84-23.04 243.84-25.28L243.84-25.28L243.84-25.28Q243.84-28.72 240.56-28.72L240.56-28.72L240.56-28.72Q237.92-28.72 235.48-25.28L235.48-25.28L235.48-25.28Q233.04-21.84 231.44-15.84L231.44-15.84L228.72-0.88L228.72-0.88Q231.20-1.12 232.80-3.12L232.80-3.12L234-2.16L234-2.16Q231.60 0.72 228 0.72L228 0.72L228 0.72Q224.40 0.72 222.36-1.12L222.36-1.12L222.36-1.12Q220.32-2.96 220.32-5.92L220.32-5.92L220.32-5.92Q220.32-7.04 221.60-14.72L221.60-14.72L224.24-29.52L224.24-29.52Q221.84-29.28 220.24-27.28L220.24-27.28L219.04-28.24L219.04-28.24Q221.44-31.12 225.08-31.12L225.08-31.12L225.08-31.12Q228.72-31.12 230.72-29.28L230.72-29.28L230.72-29.28Q232.72-27.44 232.72-24.08L232.72-24.08L232.72-23.60L232.72-23.60Q236-31.12 242.96-31.12L242.96-31.12L242.96-31.12Q247.68-31.12 250.32-28.44L250.32-28.44L250.32-28.44Q252.96-25.76 252.96-21.04L252.96-21.04L252.96-21.04Q252.96-18.56 251.44-11.48L251.44-11.48L251.44-11.48Q249.92-4.40 249.76-0.88" fill="#1890ff" stroke="none" stroke-width="none" transform="translate(-143.68002319335938,18.593397216796877)" style="fill: rgb(24, 144, 255);"></path></g><g class="path" style="transform: matrix(1, 0, 0, 1, 0, 0); transform-origin: 131.2px 10.3934px; animation: 1s linear 0s infinite normal forwards running bounce-ea6dda22-e5d7-46e8-ad1a-9f1493b65ce0;"><path d="M285.04 8.72L285.04 8.72L285.04 8.72Q287.92 8.72 290 6.48L290 6.48L291.12 7.44L291.12 7.44Q289.20 10.16 285.04 10.16L285.04 10.16L285.04 10.16Q283.28 10.16 281.44 9.76L281.44 9.76L281.44 9.76Q276 14.72 267.52 14.72L267.52 14.72L267.52 14.72Q262.48 14.72 259.72 13L259.72 13L259.72 13Q256.96 11.28 256.96 8.52L256.96 8.52L256.96 8.52Q256.96 5.76 258.68 4.12L258.68 4.12L258.68 4.12Q260.40 2.48 264.80 2.48L264.80 2.48L264.80 2.48Q269.20 2.48 276.40 6.08L276.40 6.08L278.88-7.20L278.88-7.20Q275.28-0.56 269.60-0.56L269.60-0.56L269.60-0.56Q258.72-0.56 258.72-11.28L258.72-11.28L258.72-11.28Q258.72-20.24 263.24-25.68L263.24-25.68L263.24-25.68Q267.76-31.12 274.80-31.12L274.80-31.12L274.80-31.12Q278.88-31.12 281.12-28.64L281.12-28.64L281.12-28.64Q281.76-27.92 282.40-26.48L282.40-26.48L283.12-30.40L283.12-30.40Q289.04-30.40 291.76-30.88L291.76-30.88L292.80-31.12L287.52-1.60L287.52-1.60Q286.32 4.64 282.72 8.48L282.72 8.48L282.72 8.48Q283.76 8.72 285.04 8.72zM267.76-8.80L267.76-8.80Q267.76-5.12 268.48-3.88L268.48-3.88L268.48-3.88Q269.20-2.64 271.20-2.64L271.20-2.64L271.20-2.64Q273.20-2.64 275.28-4.80L275.28-4.80L275.28-4.80Q277.36-6.96 278.28-8.84L278.28-8.84L278.28-8.84Q279.20-10.72 279.84-12.48L279.84-12.48L281.52-21.68L281.52-22.24L281.52-22.24Q281.52-29.60 274.80-29.60L274.80-29.60L274.80-29.60Q272.24-29.60 270-22.64L270-22.64L270-22.64Q267.76-15.68 267.76-8.80L267.76-8.80zM267.20 13.12L267.20 13.12L267.20 13.12Q273.60 13.12 275.84 7.60L275.84 7.60L274.72 7.04L274.72 7.04Q273.76 6.56 273.56 6.44L273.56 6.44L273.56 6.44Q273.36 6.32 272.48 5.92L272.48 5.92L272.48 5.92Q271.60 5.52 271.20 5.40L271.20 5.40L271.20 5.40Q270.80 5.28 269.96 4.96L269.96 4.96L269.96 4.96Q269.12 4.64 268.56 4.52L268.56 4.52L268.56 4.52Q268 4.40 267.28 4.24L267.28 4.24L267.28 4.24Q266.08 4 263.76 4L263.76 4L263.76 4Q261.44 4 260.04 5.12L260.04 5.12L260.04 5.12Q258.64 6.24 258.64 8.40L258.64 8.40L258.64 8.40Q258.64 10.56 260.96 11.84L260.96 11.84L260.96 11.84Q263.28 13.12 267.20 13.12" fill="#1890ff" stroke="none" stroke-width="none" transform="translate(-143.68002319335938,18.593397216796877)" style="fill: rgb(24, 144, 255);"></path></g></g>
</g>
</g>
<style id="bounce-ea6dda22-e5d7-46e8-ad1a-9f1493b65ce0" data-anikit="">@keyframes bounce-ea6dda22-e5d7-46e8-ad1a-9f1493b65ce0
{
  0% {
    animation-timing-function: cubic-bezier(0.1361,0.2514,0.2175,0.8786);
    transform: translate(0,0px) scaleY(1);
  }
  37% {
    animation-timing-function: cubic-bezier(0.7674,0.1844,0.8382,0.7157);
    transform: translate(0,-39.96px) scaleY(1);
  }
  72% {
    animation-timing-function: cubic-bezier(0.1118,0.2149,0.2172,0.941);
    transform: translate(0,0px) scaleY(1);
  }
  87% {
    animation-timing-function: cubic-bezier(0.7494,0.2259,0.8209,0.6963);
    transform: translate(0,19.900000000000002px) scaleY(0.602);
  }
  100% {
    transform: translate(0,0px) scaleY(1);
  }
}</style></svg>